<svg width="348" height="362" viewBox="0 0 348 362" fill="none" xmlns="http://www.w3.org/2000/svg">
<path fill-rule="evenodd" clip-rule="evenodd" d="M26.215 179.755C26.1573 190.685 34.2027 197.201 47.0414 194.238V165.272C34.0404 161.328 26.2694 169.307 26.215 179.755ZM47.4342 123.387H65.1169V206.765C48.1674 209.525 31.934 211.276 20.3207 204.807C5.36761 196.479 4.1655 170.013 15.9979 158.225C21.9972 152.25 34.0747 148.043 47.0414 150.788V124.561C47.0076 124.005 46.9762 123.452 47.4342 123.387Z" fill="black"/>
<path fill-rule="evenodd" clip-rule="evenodd" d="M93.7999 141.785H76.1172V123.387H93.7999V141.785Z" fill="black"/>
<path fill-rule="evenodd" clip-rule="evenodd" d="M305.995 195.02C325.272 202.482 327.404 160.648 307.96 164.487C295.884 166.871 296.272 191.256 305.995 195.02ZM306.781 150.003C321.502 148.435 332.608 154.907 337.038 164.878C344.598 181.892 336.623 201.415 324.464 207.155C318.162 210.13 311.564 210.413 305.602 209.895C287.176 208.294 275.554 189.587 282.025 168.792C283.038 165.538 284.175 163.547 284.776 162.53C288.781 155.745 295.544 151.2 306.781 150.003Z" fill="black"/>
<path fill-rule="evenodd" clip-rule="evenodd" d="M118.166 188.365C113.275 196.553 125.564 198.515 133.491 196.194V184.059C127.4 184.906 120.467 184.512 118.166 188.365ZM149.209 207.546C134.602 208.383 112.404 213.34 104.412 203.632C99.7178 197.928 100.223 187.048 104.412 181.711C109.827 174.814 121.646 173.31 132.312 172.316C133.28 169.941 132.627 166.077 131.526 164.486C121.77 162.011 112.077 165.847 105.199 168.792V155.092C115.588 150.337 139.652 145.331 146.851 156.266C150.632 162.01 149.209 172.027 149.209 180.927V207.546Z" fill="black"/>
<path fill-rule="evenodd" clip-rule="evenodd" d="M211.299 208.33H193.616V185.626C193.616 178.15 194.83 168.672 190.865 165.662C187.759 163.304 180.392 164.487 175.933 165.662V208.33H158.25V153.919C176.326 149.241 208.955 144.226 211.299 166.836C212.454 177.984 210.442 194.708 211.299 208.33Z" fill="black"/>
<path fill-rule="evenodd" clip-rule="evenodd" d="M237.624 189.542C240.6 194.338 248.657 196.136 255.307 193.065C254.942 183.904 254.814 174.506 254.914 164.881C239.632 160.859 230.525 178.102 237.624 189.542ZM282.028 152.355C280.454 157.05 278.15 161.018 276.134 165.273C274.311 165.679 272.732 164.551 271.811 165.273C271.408 184.354 275.89 210.221 268.274 223.989C263.689 232.278 255.246 237.596 242.339 238.473C232.937 239.111 225.64 237.581 218.762 234.95V218.509C226.829 223.201 247.211 227.026 252.949 217.334C254.637 214.483 254.53 211.536 255.307 207.157C251.613 207.35 248.026 209.054 243.519 209.114C224.986 209.359 213.521 194.66 217.977 174.275C219.7 166.39 224.338 160.041 230.551 156.269C243.457 148.434 263.294 149.029 282.028 152.355Z" fill="black"/>
<path fill-rule="evenodd" clip-rule="evenodd" d="M93.803 151.102C93.7829 164.073 93.7859 173.394 93.7846 189.152C93.0334 204.638 93.2082 216.97 87.516 224.38C86.3934 225.842 84.0092 227.973 82.0145 229.469C80.3393 230.726 77.1467 233.273 75.3343 233.384C73.5073 233.496 68.8135 230.857 66.6891 229.861C63.8997 228.552 61.321 226.814 58.4375 225.947C65.1637 221.794 71.5486 218.682 74.1552 210.289C76.4222 202.989 76.1203 192.412 76.1203 182.104C76.1203 171.926 76.1658 160.093 76.1658 151.106L93.803 151.102Z" fill="black"/>
</svg>
