<svg width="348" height="362" viewBox="0 0 348 362" fill="none" xmlns="http://www.w3.org/2000/svg">
<g clip-path="url(#clip0_2264_16659)">
<path d="M348 0H0V362H348V0Z" fill="#512BD4"/>
<path d="M62.0223 229.334C59.5617 229.334 57.4702 228.514 55.7477 226.874C54.0253 225.192 53.1641 223.195 53.1641 220.883C53.1641 218.527 54.0253 216.51 55.7477 214.828C57.4702 213.146 59.5617 212.305 62.0223 212.305C64.5239 212.305 66.6359 213.146 68.3584 214.828C70.1218 216.51 71.0036 218.527 71.0036 220.883C71.0036 223.195 70.1218 225.192 68.3584 226.874C66.6359 228.514 64.5239 229.334 62.0223 229.334Z" fill="white"/>
<path d="M160.389 227.946H144.395L102.257 161.468C101.191 159.786 100.309 158.04 99.612 156.232H99.2427C99.5708 158.167 99.7349 162.309 99.7349 168.657V227.946H85.5859V137.5H102.626L143.349 202.401C145.072 205.093 146.179 206.943 146.671 207.952H146.917C146.507 205.555 146.302 201.498 146.302 195.779V137.5H160.389V227.946Z" fill="white"/>
<path d="M229.293 227.946H179.773V137.5H227.325V150.241H194.415V175.848H224.742V188.525H194.415V215.268H229.293V227.946Z" fill="white"/>
<path d="M299.667 150.241H274.322V227.946H259.681V150.241H234.398V137.5H299.667V150.241Z" fill="white"/>
</g>
<defs>
<clipPath id="clip0_2264_16659">
<rect width="348" height="362" fill="white"/>
</clipPath>
</defs>
</svg>
