<svg width="348" height="362" viewBox="0 0 348 362" fill="none" xmlns="http://www.w3.org/2000/svg">
<path d="M348 276.645C335.341 279.864 327.511 276.786 320.486 266.237L270.526 197.116L263.305 187.546L204.961 266.466C198.295 275.96 191.302 280.092 178.861 276.732L253.572 176.442L184.016 85.8537C195.978 83.5264 204.243 84.7118 211.584 95.4237L263.403 165.404L315.603 95.8043C322.291 86.3104 329.48 82.6999 341.486 86.2017L314.516 121.959L277.976 169.537C273.626 174.974 274.224 178.694 278.226 183.946L348 276.645ZM0.087 174.768L6.19875 144.709C22.8375 85.2229 91.0238 60.504 138.047 97.2615C165.528 118.881 172.358 149.462 170.998 183.718H16.095C13.7678 245.379 58.1486 282.593 114.731 263.606C134.578 256.939 146.269 241.399 152.119 221.954C155.088 212.21 160.004 210.688 169.161 213.472C164.484 237.788 153.936 258.103 131.642 270.816C98.3317 289.847 50.7862 283.692 25.7737 257.244C10.875 241.899 4.71975 222.455 1.9575 201.662C1.5225 198.225 0.6525 194.952 0 191.657C0.058 186.031 0.087 180.405 0.087 174.779V174.768ZM16.3778 170.635H156.361C155.447 126.048 127.683 94.3797 89.7405 94.1078C48.0892 93.7815 18.183 124.699 16.3778 170.635Z" fill="black"/>
</svg>
