<svg width="32" height="32" viewBox="0 0 32 32" fill="none" xmlns="http://www.w3.org/2000/svg">
<path d="M23.5766 20.9146C23.8989 20.5909 24.1502 20.2035 24.3143 19.7772C24.4785 19.3509 24.5519 18.895 24.5298 18.4387C24.5078 17.9824 24.3909 17.5357 24.1865 17.1272C23.982 16.7186 23.6946 16.3572 23.3427 16.0661C22.0291 14.9782 20.0793 15.1407 18.8733 16.3469L17.609 17.6114L16.2766 18.944C14.8068 20.4139 12.8135 21.2397 10.735 21.2397C8.65652 21.2397 6.66317 20.4139 5.19346 18.944C3.72375 17.4741 2.89807 15.4805 2.89807 13.4017C2.89807 11.3229 3.72375 9.3293 5.19346 7.85939L6.52589 6.52677C8.93873 4.12019 7.23193 0 3.8249 0C2.81047 0 1.8376 0.403034 1.12029 1.12044C0.402979 1.83784 0 2.81085 0 3.82542V28.1754C0.000217704 29.1898 0.403293 30.1626 1.12058 30.8798C1.83786 31.5971 2.81062 32 3.8249 32H10.9091C11.9233 31.9999 12.896 31.5971 13.6133 30.88L23.5766 20.9146Z" fill="#15B788"/>
<path d="M21.0885 1.41001e-06C20.0743 0.00023271 19.1017 0.403041 18.3842 1.11996L8.42092 11.0846C7.80625 11.6993 7.46094 12.5331 7.46094 13.4025C7.46094 13.833 7.54571 14.2592 7.71043 14.657C7.87514 15.0547 8.11657 15.416 8.42092 15.7204C8.72527 16.0248 9.08659 16.2663 9.48424 16.431C9.8819 16.5957 10.3081 16.6805 10.7385 16.6805C11.6078 16.6805 12.4415 16.3352 13.0561 15.7204L14.3886 14.3878L15.6036 13.1726C18.6182 10.1584 23.5284 9.97039 26.6309 12.8902C27.3939 13.6097 28.0049 14.4751 28.4278 15.435C28.8506 16.3949 29.0766 17.4298 29.0924 18.4786C29.1083 19.5274 28.9136 20.5688 28.52 21.541C28.1264 22.5133 27.5418 23.3967 26.8008 24.139L25.4684 25.4699C23.0596 27.8798 24.7656 32 28.1776 32C29.1917 31.9998 30.1643 31.5968 30.8814 30.8796C31.5985 30.1624 32.0014 29.1897 32.0016 28.1754V3.82542C32.0016 3.32278 31.9026 2.82507 31.7102 2.36074C31.5178 1.8964 31.2357 1.47454 30.8802 1.11928C30.5247 0.764012 30.1026 0.482303 29.6382 0.290251C29.1738 0.0981988 28.676 -0.000430131 28.1735 1.41001e-06H21.0885Z" fill="#1395BA"/>
</svg>
