<svg width="348" height="362" viewBox="0 0 348 362" fill="none" xmlns="http://www.w3.org/2000/svg">
<path fill-rule="evenodd" clip-rule="evenodd" d="M345.397 80.5023C345.525 80.9767 345.591 81.4659 345.592 81.9573V158.339C345.592 159.32 345.333 160.283 344.842 161.131C344.351 161.979 343.644 162.683 342.794 163.171L278.699 200.081V273.239C278.699 275.23 277.641 277.068 275.915 278.071L142.123 355.107C141.817 355.281 141.483 355.393 141.149 355.511C141.024 355.553 140.905 355.629 140.773 355.664C139.838 355.91 138.855 355.91 137.919 355.664C137.766 355.622 137.627 355.539 137.481 355.483C137.175 355.372 136.854 355.274 136.562 355.107L2.79792 278.071C1.94816 277.583 1.24209 276.879 0.750876 276.031C0.259666 275.182 0.000673306 274.22 0 273.239L0 44.0935C0 43.5923 0.0696 43.1049 0.19488 42.6316C0.23664 42.4714 0.33408 42.3253 0.38976 42.1651C0.49416 41.8728 0.5916 41.5734 0.74472 41.3019C0.84912 41.1209 1.00224 40.9747 1.12752 40.8076C1.2876 40.5849 1.43376 40.3551 1.62168 40.1602C1.78176 40.0001 1.99056 39.8818 2.17152 39.7425C2.37336 39.5754 2.55432 39.3944 2.784 39.2622L69.6766 0.743988C70.5235 0.256545 71.4835 0 72.4606 0C73.4377 0 74.3977 0.256545 75.2446 0.743988L142.13 39.2622H142.144C142.367 39.4014 142.555 39.5755 142.757 39.7356C142.938 39.8748 143.139 40.0001 143.299 40.1533C143.494 40.3551 143.634 40.5849 143.801 40.8076C143.919 40.9747 144.079 41.1209 144.176 41.3019C144.336 41.5804 144.427 41.8728 144.538 42.1651C144.594 42.3253 144.691 42.4714 144.733 42.6385C144.861 43.1129 144.927 43.6021 144.928 44.0935V187.216L200.664 155.116V81.9503C200.664 81.463 200.733 80.9688 200.859 80.5023C200.907 80.3353 200.998 80.1891 201.054 80.029C201.165 79.7366 201.262 79.4372 201.415 79.1657C201.52 78.9847 201.673 78.8385 201.791 78.6714C201.958 78.4487 202.098 78.2189 202.292 78.024C202.452 77.8639 202.654 77.7456 202.835 77.6063C203.044 77.4393 203.225 77.2583 203.448 77.126L270.347 38.6078C271.194 38.1197 272.154 37.8627 273.131 37.8627C274.109 37.8627 275.069 38.1197 275.915 38.6078L342.801 77.126C343.038 77.2652 343.218 77.4393 343.427 77.5994C343.601 77.7386 343.803 77.8639 343.963 78.0171C344.158 78.2189 344.297 78.4487 344.464 78.6714C344.59 78.8385 344.743 78.9847 344.84 79.1657C345 79.4372 345.091 79.7366 345.202 80.029C345.265 80.1891 345.355 80.3353 345.397 80.5023ZM334.442 155.116V91.599L311.035 105.077L278.699 123.699V187.216L334.449 155.116H334.442ZM267.556 270.016V206.457L235.749 224.627L144.921 276.477V340.634L267.556 270.016ZM11.1499 53.7352V270.016L133.771 340.627V276.484L69.7114 240.221L69.6905 240.207L69.6626 240.193C69.4469 240.068 69.2659 239.887 69.0641 239.734C68.8901 239.594 68.6882 239.483 68.5351 239.33L68.5212 239.309C68.3402 239.135 68.215 238.919 68.0618 238.724C67.9226 238.536 67.7556 238.376 67.6442 238.181L67.6373 238.16C67.512 237.951 67.4354 237.701 67.345 237.464C67.2545 237.255 67.1362 237.06 67.0805 236.838C67.0109 236.573 66.997 236.288 66.9691 236.016C66.9413 235.807 66.8856 235.598 66.8856 235.39V235.376V85.8349L34.5564 67.2058L11.1499 53.7352ZM72.4675 12.0078L16.7388 44.0935L72.4536 76.1792L128.175 44.0865L72.4536 12.0078H72.4675ZM101.449 212.249L133.778 193.634V53.7352L110.372 67.2128L78.0355 85.8349V225.734L101.449 212.249ZM273.131 49.8716L217.41 81.9573L273.131 114.043L328.846 81.9503L273.131 49.8716ZM267.556 123.699L235.22 105.077L211.814 91.599V155.116L244.143 173.731L267.556 187.216V123.699ZM139.339 266.835L221.07 220.165L261.926 196.844L206.246 164.779L142.137 201.696L83.7079 235.341L139.339 266.835Z" fill="#FF2D20"/>
</svg>
