<svg width="348" height="362" viewBox="0 0 348 362" fill="none" xmlns="http://www.w3.org/2000/svg">
<g clip-path="url(#clip0_2264_16633)">
<path d="M231.336 146.031H291.952V157.273H267.906V216.415H255.882V157.273H231.336V146.031Z" fill="black"/>
<path d="M131.647 146.031V157.273H83.0592V175.358H122.133V186.6H83.0592V205.173H131.647V216.415H71.0363V157.273H71.0312V146.031H131.647Z" fill="black"/>
<path d="M161.914 146.059H146.18L202.536 216.443H218.316L190.135 181.275L218.271 146.112L202.536 146.137L182.257 171.444L161.914 146.059Z" fill="black"/>
<path d="M178.066 196.336L170.186 186.492L146.141 216.498H161.92L178.066 196.336Z" fill="black"/>
<path fill-rule="evenodd" clip-rule="evenodd" d="M71.461 216.413L15.0286 146H0V216.384H12.0229V161.045L56.3572 216.413H71.461Z" fill="black"/>
<path d="M294.655 215.982C293.774 215.982 293.025 215.676 292.398 215.063C291.771 214.45 291.461 213.708 291.469 212.829C291.461 211.974 291.771 211.24 292.398 210.627C293.025 210.014 293.774 209.707 294.655 209.707C295.502 209.707 296.243 210.014 296.87 210.627C297.506 211.24 297.823 211.974 297.832 212.829C297.823 213.409 297.676 213.942 297.383 214.418C297.082 214.902 296.7 215.281 296.218 215.555C295.746 215.837 295.224 215.982 294.655 215.982Z" fill="black"/>
<path d="M315.175 186.332H320.503V206.957C320.495 208.852 320.087 210.474 319.289 211.837C318.483 213.2 317.367 214.24 315.933 214.974C314.508 215.7 312.837 216.072 310.939 216.072C309.204 216.072 307.648 215.757 306.263 215.144C304.878 214.531 303.779 213.611 302.972 212.401C302.157 211.192 301.758 209.683 301.758 207.876H307.094C307.102 208.667 307.282 209.352 307.623 209.925C307.965 210.498 308.438 210.933 309.041 211.24C309.651 211.546 310.353 211.7 311.142 211.7C311.998 211.7 312.731 211.522 313.326 211.159C313.92 210.804 314.377 210.272 314.695 209.562C315.004 208.861 315.167 207.989 315.175 206.957V186.332Z" fill="black"/>
<path d="M342.43 194.399C342.3 193.149 341.729 192.173 340.736 191.479C339.733 190.777 338.438 190.43 336.849 190.43C335.734 190.43 334.773 190.6 333.974 190.93C333.176 191.269 332.557 191.721 332.133 192.294C331.71 192.866 331.498 193.52 331.481 194.254C331.481 194.867 331.628 195.399 331.913 195.843C332.198 196.294 332.581 196.673 333.078 196.98C333.566 197.294 334.112 197.553 334.708 197.762C335.31 197.972 335.913 198.149 336.516 198.295L339.293 198.98C340.41 199.238 341.494 199.585 342.528 200.029C343.562 200.464 344.499 201.021 345.322 201.69C346.145 202.36 346.797 203.167 347.277 204.11C347.758 205.054 348.002 206.159 348.002 207.433C348.002 209.151 347.562 210.66 346.674 211.967C345.786 213.265 344.507 214.282 342.829 215.016C341.159 215.742 339.139 216.113 336.76 216.113C334.463 216.113 332.459 215.758 330.773 215.048C329.079 214.346 327.758 213.314 326.805 211.958C325.852 210.603 325.339 208.95 325.266 207.006H330.545C330.618 208.022 330.944 208.869 331.498 209.555C332.06 210.232 332.793 210.732 333.689 211.071C334.594 211.402 335.603 211.571 336.72 211.571C337.885 211.571 338.911 211.394 339.799 211.047C340.678 210.7 341.371 210.216 341.868 209.587C342.373 208.966 342.626 208.232 342.634 207.393C342.626 206.627 342.397 205.99 341.957 205.489C341.509 204.989 340.89 204.57 340.1 204.231C339.302 203.893 338.373 203.586 337.314 203.32L333.942 202.465C331.506 201.844 329.575 200.9 328.165 199.634C326.749 198.367 326.047 196.69 326.047 194.584C326.047 192.858 326.52 191.342 327.474 190.043C328.418 188.745 329.714 187.736 331.351 187.018C332.997 186.292 334.854 185.938 336.923 185.938C339.025 185.938 340.866 186.292 342.455 187.018C344.043 187.736 345.29 188.736 346.193 190.011C347.098 191.285 347.57 192.745 347.595 194.399H342.43Z" fill="black"/>
</g>
<defs>
<clipPath id="clip0_2264_16633">
<rect width="348" height="71" fill="white" transform="translate(0 146)"/>
</clipPath>
</defs>
</svg>
