<svg width="348" height="362" viewBox="0 0 348 362" fill="none" xmlns="http://www.w3.org/2000/svg">
<g clip-path="url(#clip0_2264_16554)">
<path d="M172 288.002C170.851 288.002 169.71 287.7 168.704 287.121L158.212 280.913C156.645 280.038 157.409 279.728 157.926 279.549C160.016 278.818 160.44 278.653 162.67 277.387C162.904 277.254 163.211 277.301 163.451 277.442L171.511 282.222C171.802 282.38 172.215 282.38 172.485 282.222L203.913 264.093C204.204 263.928 204.392 263.59 204.392 263.244V227.001C204.392 226.639 204.204 226.317 203.906 226.136L172.491 208.022C172.2 207.849 171.815 207.849 171.524 208.022L140.115 226.136C139.811 226.309 139.617 226.647 139.617 226.993V263.236C139.617 263.582 139.806 263.912 140.105 264.077L148.711 269.046C153.384 271.381 156.24 268.629 156.24 265.862V230.09C156.24 229.579 156.641 229.186 157.152 229.186H161.133C161.628 229.186 162.037 229.579 162.037 230.09V265.878C162.037 272.104 158.639 275.681 152.731 275.681C150.914 275.681 149.482 275.681 145.486 273.716L137.241 268.967C135.204 267.788 133.945 265.587 133.945 263.236V226.993C133.945 224.634 135.204 222.433 137.241 221.269L168.7 203.132C170.691 202.008 173.334 202.008 175.308 203.132L206.728 221.277C208.758 222.449 210.024 224.642 210.024 227.001V263.244C210.024 265.595 208.758 267.788 206.728 268.967L175.308 287.105C174.301 287.686 173.161 287.985 171.997 287.985" fill="#689F63"/>
<path d="M181.712 263.029C167.961 263.029 165.078 256.72 165.078 251.429C165.078 250.926 165.484 250.525 165.988 250.525H170.048C170.496 250.525 170.874 250.851 170.944 251.294C171.558 255.428 173.383 257.513 181.698 257.513C188.322 257.513 191.138 256.017 191.138 252.507C191.138 250.487 190.336 248.985 180.046 247.979C171.44 247.13 166.122 245.235 166.122 238.356C166.122 232.019 171.471 228.246 180.432 228.246C190.493 228.246 195.481 231.736 196.11 239.236C196.133 239.496 196.039 239.747 195.866 239.936C195.693 240.117 195.449 240.227 195.197 240.227H191.115C190.69 240.227 190.32 239.928 190.233 239.519C189.25 235.172 186.874 233.78 180.416 233.78C173.186 233.78 172.345 236.296 172.345 238.183C172.345 240.471 173.336 241.139 183.091 242.428C192.751 243.71 197.337 245.518 197.337 252.303C197.337 259.143 191.626 263.066 181.667 263.066M219.946 224.629H221C221.865 224.629 222.031 224.024 222.031 223.67C222.031 222.742 221.393 222.742 221.039 222.742H219.954L219.946 224.629ZM218.664 221.657H221C221.803 221.657 223.376 221.657 223.376 223.45C223.376 224.7 222.573 224.959 222.094 225.117C223.03 225.179 223.093 225.793 223.219 226.657C223.281 227.2 223.384 228.135 223.573 228.45H222.133C222.094 228.135 221.873 226.406 221.873 226.312C221.779 225.926 221.645 225.738 221.165 225.738H219.977V228.458H218.664V221.657ZM215.855 225.038C215.855 227.852 218.129 230.132 220.921 230.132C223.738 230.132 226.011 227.805 226.011 225.038C226.011 222.215 223.706 219.975 220.914 219.975C218.16 219.975 215.847 222.184 215.847 225.03M226.987 225.054C226.987 228.387 224.257 231.107 220.929 231.107C217.625 231.107 214.872 228.418 214.872 225.054C214.872 221.626 217.688 219 220.929 219C224.194 219 226.979 221.634 226.979 225.054" fill="#689F63"/>
<path fill-rule="evenodd" clip-rule="evenodd" d="M74.6833 146.189C74.6833 144.742 73.9202 143.414 72.671 142.694L39.3508 123.535C38.7883 123.205 38.1582 123.032 37.5194 123.008H37.1749C36.5361 123.032 35.906 123.205 35.3341 123.535L2.01545 142.694C0.774083 143.417 0 144.746 0 146.193L0.0731603 197.798C0.0731603 198.513 0.442895 199.181 1.07223 199.535C1.68583 199.913 2.45677 199.913 3.07037 199.535L22.8787 188.199C24.1295 187.455 24.8926 186.14 24.8926 184.708V160.6C24.8926 159.161 25.6557 157.832 26.9025 157.117L35.3356 152.263C35.9618 151.901 36.6494 151.722 37.3495 151.722C38.0386 151.722 38.7419 151.9 39.3508 152.262L47.78 157.114C49.0276 157.83 49.7938 159.158 49.7938 160.597V184.704C49.7938 186.135 50.5671 187.456 51.8116 188.195L71.6074 199.523C72.2289 199.893 73.0022 199.893 73.6213 199.523C74.2317 199.17 74.6188 198.501 74.6188 197.786L74.6833 146.189ZM231.913 173.057C231.913 173.417 231.722 173.749 231.41 173.927L219.965 180.52C219.655 180.698 219.271 180.698 218.961 180.52L207.515 173.927C207.2 173.748 207.011 173.416 207.011 173.057V159.853C207.011 159.493 207.2 159.161 207.507 158.98L218.945 152.376C219.26 152.195 219.645 152.195 219.96 152.376L231.406 158.98C231.721 159.161 231.909 159.493 231.909 159.853L231.913 173.057ZM235.005 75.2546C234.38 74.9071 233.62 74.9165 233.004 75.2758C232.39 75.6374 232.011 76.2978 232.011 77.0132V128.115C232.011 128.618 231.743 129.082 231.308 129.334C230.875 129.585 230.336 129.585 229.9 129.334L221.553 124.529C220.31 123.811 218.779 123.811 217.532 124.529L184.2 143.754C182.955 144.469 182.186 145.798 182.186 147.229V185.689C182.186 187.128 182.955 188.449 184.2 189.172L217.532 208.41C218.776 209.125 220.308 209.125 221.557 208.41L254.888 189.164C256.131 188.441 256.902 187.12 256.902 185.681V89.8296C256.902 88.3705 256.107 87.0284 254.833 86.3154L235.005 75.2546ZM345.999 159.505C347.237 158.787 347.999 157.46 347.999 156.029V146.708C347.999 145.274 347.236 143.951 345.995 143.229L312.877 124.014C311.626 123.291 310.092 123.291 308.841 124.014L275.518 143.237C274.267 143.96 273.504 145.281 273.504 146.719V185.164C273.504 186.61 274.283 187.947 275.533 188.662L308.644 207.523C309.864 208.223 311.358 208.23 312.593 207.546L332.622 196.422C333.251 196.068 333.653 195.4 333.653 194.677C333.653 193.953 333.267 193.277 332.638 192.923L299.11 173.693C298.481 173.34 298.095 172.671 298.095 171.956V159.896C298.095 159.176 298.473 158.512 299.102 158.154L309.533 152.139C310.155 151.778 310.918 151.778 311.539 152.139L321.978 158.154C322.6 158.507 322.985 159.176 322.985 159.891V169.373C322.985 170.088 323.371 170.756 323.992 171.118C324.614 171.472 325.385 171.472 326.006 171.11L345.999 159.505Z" fill="#333333"/>
<path fill-rule="evenodd" clip-rule="evenodd" d="M310.371 157.706C310.607 157.567 310.903 157.567 311.142 157.706L317.538 161.393C317.777 161.532 317.923 161.786 317.923 162.061V169.444C317.923 169.719 317.777 169.974 317.538 170.112L311.142 173.799C310.903 173.938 310.607 173.938 310.371 173.799L303.979 170.112C303.735 169.974 303.586 169.719 303.586 169.444V162.061C303.586 161.786 303.728 161.532 303.971 161.393L310.371 157.706Z" fill="#689F63"/>
<mask id="mask0_2264_16554" style="mask-type:luminance" maskUnits="userSpaceOnUse" x="91" y="123" width="75" height="86">
<path d="M126.434 124.206L93.2919 143.324C92.0506 144.04 91.2891 145.36 91.2891 146.788V185.05C91.2891 186.479 92.0506 187.799 93.2919 188.514L126.437 207.647C127.676 208.36 129.203 208.36 130.441 207.647L163.58 188.514C164.815 187.799 165.578 186.478 165.578 185.05V146.788C165.578 145.36 164.815 144.04 163.572 143.324L130.438 124.206C129.816 123.85 129.124 123.672 128.432 123.672C127.739 123.672 127.047 123.85 126.426 124.206" fill="white"/>
</mask>
<g mask="url(#mask0_2264_16554)">
<path d="M199.071 140.076L105.681 94.3281L57.7969 191.952L151.184 237.702L199.071 140.076Z" fill="url(#paint0_linear_2264_16554)"/>
</g>
<mask id="mask1_2264_16554" style="mask-type:luminance" maskUnits="userSpaceOnUse" x="92" y="123" width="73" height="86">
<path d="M92.1094 187.479C92.4264 187.891 92.8229 188.247 93.2894 188.514L121.72 204.926L126.455 207.646C127.163 208.055 127.971 208.228 128.763 208.169C129.028 208.147 129.292 208.098 129.55 208.025L164.505 144.061C164.238 143.77 163.924 143.526 163.574 143.322L141.873 130.798L130.401 124.202C130.076 124.013 129.722 123.879 129.363 123.785L92.1094 187.479Z" fill="white"/>
</mask>
<g mask="url(#mask1_2264_16554)">
<path d="M51.7344 153.61L117.677 242.804L204.887 178.411L138.941 89.2188L51.7344 153.61Z" fill="url(#paint1_linear_2264_16554)"/>
</g>
<mask id="mask2_2264_16554" style="mask-type:luminance" maskUnits="userSpaceOnUse" x="93" y="123" width="73" height="86">
<path d="M128.039 123.695C127.483 123.75 126.94 123.923 126.439 124.207L93.3906 143.27L129.027 208.138C129.522 208.067 130.01 207.902 130.451 207.647L163.593 188.515C164.616 187.922 165.316 186.919 165.528 185.782L129.2 123.76C128.932 123.707 128.665 123.68 128.39 123.68C128.279 123.68 128.169 123.685 128.059 123.695" fill="white"/>
</mask>
<g mask="url(#mask2_2264_16554)">
<path d="M93.3906 123.68V208.139H165.515V123.68H93.3906Z" fill="url(#paint2_linear_2264_16554)"/>
</g>
</g>
<defs>
<linearGradient id="paint0_linear_2264_16554" x1="152.348" y1="117.13" x2="104.515" y2="214.771" gradientUnits="userSpaceOnUse">
<stop offset="0.3" stop-color="#3E863D"/>
<stop offset="0.5" stop-color="#55934F"/>
<stop offset="0.8" stop-color="#5AAD45"/>
</linearGradient>
<linearGradient id="paint1_linear_2264_16554" x1="85.1009" y1="198.718" x2="172.276" y2="134.266" gradientUnits="userSpaceOnUse">
<stop offset="0.57" stop-color="#3E863D"/>
<stop offset="0.72" stop-color="#619857"/>
<stop offset="1" stop-color="#76AC64"/>
</linearGradient>
<linearGradient id="paint2_linear_2264_16554" x1="93.415" y1="165.912" x2="165.529" y2="165.912" gradientUnits="userSpaceOnUse">
<stop offset="0.16" stop-color="#6BBF47"/>
<stop offset="0.38" stop-color="#79B461"/>
<stop offset="0.47" stop-color="#75AC64"/>
<stop offset="0.7" stop-color="#659E5A"/>
<stop offset="0.9" stop-color="#3E863D"/>
</linearGradient>
<clipPath id="clip0_2264_16554">
<rect width="348" height="213" fill="white" transform="translate(0 75)"/>
</clipPath>
</defs>
</svg>
