<svg width="348" height="362" viewBox="0 0 348 362" fill="none" xmlns="http://www.w3.org/2000/svg">
<g clip-path="url(#clip0_2264_16578)">
<mask id="mask0_2264_16578" style="mask-type:luminance" maskUnits="userSpaceOnUse" x="4" y="93" width="340" height="177">
<path d="M4.89062 181.491C4.89062 229.913 80.6039 269.168 173.997 269.168C267.391 269.168 343.104 229.913 343.104 181.491C343.104 133.069 267.391 93.8135 173.997 93.8135C80.6039 93.8135 4.89062 133.069 4.89062 181.491Z" fill="white"/>
</mask>
<g mask="url(#mask0_2264_16578)">
<path d="M4.89062 181.491C4.89062 229.913 80.6039 269.168 173.997 269.168C267.391 269.168 343.104 229.913 343.104 181.491C343.104 133.069 267.391 93.8135 173.997 93.8135C80.6039 93.8135 4.89062 133.069 4.89062 181.491Z" fill="url(#paint0_radial_2264_16578)"/>
</g>
<mask id="mask1_2264_16578" style="mask-type:luminance" maskUnits="userSpaceOnUse" x="-3" y="83" width="354" height="197">
<path d="M-2.15625 83.8383H350.149V279.16H-2.15625V83.8383Z" fill="white"/>
</mask>
<g mask="url(#mask1_2264_16578)">
<path d="M173.993 262.664C263.739 262.664 336.494 226.324 336.494 181.496C336.494 136.669 263.739 100.329 173.993 100.329C84.2475 100.329 11.4922 136.669 11.4922 181.496C11.4922 226.324 84.2475 262.664 173.993 262.664Z" fill="#777BB3"/>
</g>
<mask id="mask2_2264_16578" style="mask-type:luminance" maskUnits="userSpaceOnUse" x="-3" y="83" width="354" height="197">
<path d="M-2.15625 83.8383H350.149V279.16H-2.15625V83.8383Z" fill="white"/>
</mask>
<g mask="url(#mask2_2264_16578)">
<path d="M96.7657 191.563C104.145 191.563 109.654 190.222 113.14 187.578C116.588 184.961 118.97 180.427 120.218 174.103C121.382 168.191 120.939 164.063 118.901 161.836C116.817 159.561 112.312 158.407 105.51 158.407H93.7173L87.1795 191.563H96.7657ZM58.1938 232.406C57.6464 232.406 57.1265 232.165 56.7785 231.748C56.4298 231.331 56.2885 230.783 56.3931 230.253L73.7197 142.388C73.8873 141.538 74.6427 140.924 75.521 140.924H112.864C124.6 140.924 133.336 144.065 138.826 150.261C144.347 156.489 146.051 165.194 143.893 176.135C143.014 180.593 141.504 184.733 139.403 188.439C137.299 192.149 134.519 195.583 131.139 198.645C127.092 202.378 122.512 205.085 117.538 206.677C112.643 208.249 106.357 209.046 98.8539 209.046H83.7329L79.4147 230.943C79.2471 231.793 78.4923 232.406 77.614 232.406H58.1938Z" fill="black"/>
<path d="M95.229 160.212H105.509C113.718 160.212 116.57 161.987 117.539 163.045C119.146 164.802 119.449 168.506 118.416 173.756C117.255 179.634 115.104 183.801 112.02 186.141C108.862 188.537 103.73 189.751 96.7648 189.751H89.4043L95.229 160.212ZM112.863 139.112H75.5195C73.7628 139.112 72.2527 140.339 71.9175 142.039L54.5909 229.904C54.3818 230.965 54.6643 232.061 55.361 232.895C56.0583 233.729 57.0968 234.211 58.1929 234.211H77.6125C79.3697 234.211 80.8799 232.984 81.2151 231.284L85.2446 210.851H98.853C106.549 210.851 113.027 210.024 118.107 208.393C123.331 206.72 128.137 203.884 132.391 199.963C135.909 196.772 138.807 193.192 141.003 189.318C143.199 185.444 144.777 181.123 145.693 176.476C147.965 164.96 146.119 155.737 140.207 149.067C134.353 142.461 125.152 139.112 112.863 139.112ZM84.9522 193.368H96.7648C104.594 193.368 110.426 191.915 114.258 189.007C118.091 186.099 120.676 181.246 122.019 174.444C123.304 167.914 122.719 163.306 120.263 160.622C117.804 157.937 112.887 156.595 105.509 156.595H92.2038L84.9522 193.368ZM112.863 142.729C124.097 142.729 132.293 145.635 137.444 151.447C142.594 157.259 144.146 165.371 142.09 175.787C141.245 180.077 139.814 184 137.8 187.554C135.783 191.11 133.15 194.362 129.896 197.31C126.018 200.887 121.711 203.436 116.97 204.954C112.23 206.476 106.193 207.234 98.853 207.234H82.2188L77.6125 230.594H58.1929L75.5195 142.729H112.863Z" fill="white"/>
<path d="M188.421 209.043C187.873 209.043 187.354 208.802 187.006 208.385C186.657 207.968 186.516 207.42 186.62 206.89L194.285 168.013C195.014 164.315 194.834 161.662 193.779 160.54C193.133 159.855 191.193 158.705 185.456 158.705H171.571L161.934 207.579C161.767 208.429 161.011 209.043 160.133 209.043H140.866C140.318 209.043 139.799 208.802 139.45 208.385C139.102 207.968 138.96 207.42 139.065 206.89L156.392 119.024C156.559 118.175 157.315 117.561 158.193 117.561H177.46C178.008 117.561 178.527 117.802 178.876 118.219C179.224 118.636 179.365 119.184 179.261 119.715L175.08 140.921H190.017C201.397 140.921 209.113 142.899 213.608 146.967C218.189 151.117 219.618 157.752 217.857 166.691L209.795 207.579C209.628 208.429 208.873 209.043 207.994 209.043H188.421Z" fill="black"/>
<path d="M177.459 115.749H158.192C156.435 115.749 154.925 116.976 154.589 118.676L137.263 206.541C137.054 207.601 137.336 208.698 138.033 209.532C138.731 210.365 139.769 210.848 140.865 210.848H160.132C161.889 210.848 163.399 209.62 163.735 207.921L173.082 160.51H185.455C191.182 160.51 192.384 161.716 192.432 161.768C192.78 162.136 193.237 163.842 192.482 167.664L184.818 206.541C184.609 207.601 184.891 208.698 185.589 209.532C186.286 210.365 187.324 210.848 188.42 210.848H207.993C209.75 210.848 211.26 209.62 211.596 207.921L219.656 167.033C221.548 157.435 219.93 150.235 214.848 145.632C209.999 141.243 201.877 139.109 190.016 139.109H177.304L181.061 120.056C181.27 118.996 180.988 117.899 180.291 117.065C179.593 116.232 178.555 115.749 177.459 115.749ZM177.459 119.366L172.852 142.726H190.016C200.816 142.726 208.265 144.584 212.365 148.295C216.465 152.009 217.693 158.026 216.054 166.343L207.993 207.231H188.42L196.085 168.354C196.957 163.932 196.637 160.915 195.122 159.307C193.607 157.698 190.384 156.893 185.455 156.893H170.057L160.132 207.231H140.865L158.192 119.366H177.459Z" fill="white"/>
<path d="M248.336 191.563C255.715 191.563 261.224 190.222 264.71 187.578C268.159 184.962 270.54 180.428 271.789 174.103C272.953 168.191 272.51 164.063 270.471 161.836C268.387 159.561 263.882 158.407 257.081 158.407H245.288L238.75 191.563H248.336ZM209.765 232.406C209.217 232.406 208.697 232.165 208.349 231.748C208.001 231.331 207.859 230.783 207.963 230.253L225.29 142.388C225.458 141.538 226.213 140.924 227.092 140.924H264.434C276.171 140.924 284.906 144.065 290.397 150.261C295.917 156.488 297.621 165.194 295.464 176.135C294.584 180.593 293.074 184.733 290.973 188.439C288.869 192.149 286.09 195.583 282.709 198.645C278.662 202.378 274.082 205.085 269.109 206.677C264.214 208.249 257.927 209.046 250.424 209.046H235.303L230.986 230.943C230.818 231.793 230.063 232.406 229.184 232.406H209.765Z" fill="black"/>
<path d="M246.807 160.212H257.087C265.296 160.212 268.147 161.987 269.116 163.045C270.724 164.802 271.027 168.506 269.994 173.755C268.833 179.634 266.681 183.801 263.597 186.141C260.44 188.537 255.307 189.751 248.342 189.751H240.982L246.807 160.212ZM264.441 139.112H227.098C225.341 139.112 223.831 140.339 223.496 142.039L206.169 229.904C205.96 230.965 206.242 232.061 206.939 232.895C207.636 233.729 208.675 234.211 209.771 234.211H229.191C230.947 234.211 232.458 232.984 232.793 231.284L236.822 210.851H250.43C258.126 210.851 264.605 210.024 269.684 208.393C274.908 206.72 279.716 203.883 283.97 199.961C287.488 196.772 290.385 193.192 292.581 189.318C294.777 185.444 296.355 181.123 297.271 176.476C299.543 164.959 297.697 155.737 291.785 149.067C285.93 142.461 276.73 139.112 264.441 139.112ZM236.53 193.368H248.342C256.172 193.368 262.004 191.915 265.836 189.007C269.669 186.099 272.253 181.246 273.596 174.444C274.882 167.914 274.297 163.306 271.84 160.622C269.382 157.937 264.465 156.595 257.087 156.595H243.781L236.53 193.368ZM264.441 142.729C275.675 142.729 283.87 145.635 289.021 151.447C294.173 157.259 295.723 165.371 293.668 175.787C292.822 180.077 291.391 184 289.377 187.554C287.361 191.11 284.728 194.362 281.474 197.31C277.596 200.887 273.288 203.436 268.548 204.954C263.808 206.476 257.77 207.234 250.43 207.234H233.796L229.191 230.594H209.771L227.098 142.729H264.441Z" fill="white"/>
</g>
</g>
<defs>
<radialGradient id="paint0_radial_2264_16578" cx="0" cy="0" r="1" gradientUnits="userSpaceOnUse" gradientTransform="translate(106.423 124.638) scale(222.061 218.868)">
<stop stop-color="#AEB2D5"/>
<stop offset="0.3" stop-color="#AEB2D5"/>
<stop offset="0.75" stop-color="#484C89"/>
<stop offset="1" stop-color="#484C89"/>
</radialGradient>
<clipPath id="clip0_2264_16578">
<rect width="348" height="185" fill="white" transform="translate(0 89)"/>
</clipPath>
</defs>
</svg>
