<svg width="348" height="362" viewBox="0 0 348 362" fill="none" xmlns="http://www.w3.org/2000/svg">
<path fill-rule="evenodd" clip-rule="evenodd" d="M274.865 122.602C319.127 136.159 347.997 158.02 347.997 181.088C347.997 204.086 319.269 225.947 275.291 239.504C285.576 284.504 281.107 320.349 261.175 331.847C256.494 334.544 251.103 335.822 245.144 335.822C225.638 335.822 200.102 322.052 174.282 298.061C148.463 322.194 122.927 336.106 103.42 336.106C97.4619 336.106 92.071 334.828 87.4603 332.131C67.4572 320.633 62.9175 284.717 73.1319 239.575C28.8697 226.018 0 204.157 0 181.088C0 158.091 28.7278 136.301 72.8481 122.673C62.5629 77.6725 67.0316 41.8283 86.9638 30.3297C91.6454 27.6325 97.0363 26.3549 102.995 26.3549V26.2839C122.501 26.2839 148.037 40.0538 173.857 64.0446C199.676 39.9118 225.212 26 244.719 26V26.071C250.578 26.0813 255.945 27.3594 260.537 30.0458C280.54 41.5443 285.08 77.4596 274.865 122.602ZM244.648 41.8283C229.895 41.866 208.222 53.6452 185.135 75.1173C195.137 85.5511 205.067 97.4756 214.643 110.607C230.603 112.31 245.783 114.936 259.686 118.343C261.246 111.174 262.523 104.148 263.303 97.4756C266.566 70.3617 262.381 49.281 252.734 43.7447C250.535 42.538 247.911 41.8992 244.648 41.8992V41.8283ZM162.578 75.1883C139.454 53.8237 117.678 42.1122 102.995 42.1122V42.1831C99.7317 42.1831 96.9653 42.751 94.8374 44.0286C85.2614 49.6359 81.1473 70.7166 84.4811 97.8305C85.3323 104.431 86.5382 111.316 88.1697 118.414C102.073 114.936 117.252 112.31 133.283 110.607C142.717 97.4756 152.648 85.6221 162.578 75.1883ZM246.066 161.782C249.755 152.342 253.018 142.902 255.642 133.746C246.35 131.474 236.632 129.629 226.56 128.138C230.036 133.533 233.511 139.069 236.774 144.747C240.108 150.426 243.158 156.104 246.066 161.782ZM206.06 236.452C211.948 228.005 217.622 218.92 223.155 209.338C228.475 200.04 233.369 190.529 237.838 181.018C233.369 171.506 228.475 162.066 223.084 152.768C217.551 143.257 211.806 134.243 205.918 125.796C195.42 124.944 184.709 124.447 173.999 124.447C163.217 124.447 152.506 124.944 141.937 125.867C136.049 134.314 130.375 143.399 124.842 152.981C119.522 162.279 114.557 171.79 110.159 181.301C114.628 190.813 119.522 200.253 124.913 209.551C130.446 219.062 136.191 228.076 142.079 236.523C152.577 237.375 163.288 237.871 173.999 237.871C184.78 237.871 195.491 237.375 206.06 236.452ZM255.855 228.36C253.16 219.133 249.897 209.622 246.066 200.111C243.158 205.789 240.108 211.538 236.845 217.217C233.582 222.966 230.107 228.573 226.631 234.039C236.774 232.548 246.563 230.632 255.855 228.36ZM154.421 253.132C160.947 261.436 167.544 269.031 174.14 275.845C180.666 269.031 187.263 261.436 193.647 253.132C187.192 253.487 180.595 253.629 173.928 253.629C167.331 253.629 160.805 253.416 154.421 253.132ZM92.2838 228.431C101.576 230.703 111.294 232.548 121.366 234.039C117.891 228.644 114.486 223.108 111.152 217.43C107.818 211.751 104.768 206.073 101.86 200.395C98.1712 209.835 94.9083 219.275 92.2838 228.431ZM193.505 109.045C186.979 100.741 180.383 93.1459 173.786 86.3319C167.26 93.1459 160.663 100.741 154.279 109.045C160.734 108.69 167.331 108.548 173.999 108.548C180.595 108.548 187.121 108.761 193.505 109.045ZM111.081 144.96C114.344 139.211 117.82 133.604 121.295 128.138C111.152 129.629 101.363 131.545 92.071 133.746C94.7664 142.973 98.0293 152.484 101.86 161.995C104.768 156.317 107.818 150.639 111.081 144.96ZM15.7471 181.088C15.7471 192.232 31.9908 206.286 57.101 217.004C63.2722 219.63 69.9399 222.043 76.9623 224.244C80.9345 210.403 86.1835 195.994 92.7094 181.23C86.1126 166.396 80.7926 151.916 76.7495 138.004C69.869 140.205 63.2013 142.547 57.101 145.173C31.9908 155.82 15.7471 169.945 15.7471 181.088ZM84.694 264.701C81.431 291.815 85.6161 312.896 95.263 318.432C97.3909 319.639 100.086 320.278 103.278 320.349C118.032 320.349 139.738 308.566 162.862 287.06C152.861 276.626 142.93 264.701 133.354 251.57C117.394 249.867 102.214 247.241 88.3115 243.834C86.751 251.003 85.4742 258.029 84.694 264.701ZM253.16 318.148C262.736 312.541 266.85 291.46 263.516 264.347C262.736 257.745 261.459 250.861 259.827 243.692C245.925 247.17 230.745 249.796 214.714 251.499C205.28 264.63 195.349 276.484 185.419 286.918C208.543 308.282 230.319 319.994 245.002 319.994C248.265 319.994 251.032 319.426 253.16 318.148ZM271.177 224.173C278.057 221.972 284.725 219.63 290.825 217.004C315.935 206.357 332.179 192.232 332.25 181.088C332.25 169.945 316.006 155.891 290.896 145.173C284.654 142.547 277.986 140.134 270.964 137.933C266.992 151.774 261.743 166.183 255.217 180.947C261.814 195.781 267.133 210.261 271.177 224.173ZM206.337 181.086C206.337 199 191.824 213.523 173.921 213.523C156.018 213.523 141.505 199 141.505 181.086C141.505 163.171 156.018 148.648 173.921 148.648C191.824 148.648 206.337 163.171 206.337 181.086Z" fill="#61DAFB"/>
</svg>
