<svg xmlns="http://www.w3.org/2000/svg" viewBox="0 0 474.39 499"><defs><style>.cls-1{fill:#082e40;}.cls-2{fill:#15b788;}.cls-3{fill:#1395ba;}</style></defs><g id="Layer_2" data-name="Layer 2"><g id="OBJECT"><path class="cls-1" d="M18.86,485a22.28,22.28,0,0,1-9-1.76,16.93,16.93,0,0,1-6.59-5.06A16.48,16.48,0,0,1,0,470.28L8.87,469a9.82,9.82,0,0,0,3.87,6A11.23,11.23,0,0,0,19.42,477a12.7,12.7,0,0,0,4.06-.66,8,8,0,0,0,3.23-1.93A4.31,4.31,0,0,0,28,471.28a4.21,4.21,0,0,0-.21-1.33,3.41,3.41,0,0,0-.67-1.2,4.85,4.85,0,0,0-1.33-1.07,10.52,10.52,0,0,0-2.17-.9l-11.67-3.44a29.83,29.83,0,0,1-3-1.06,13.25,13.25,0,0,1-3.35-2,10,10,0,0,1-2.7-3.39,11.61,11.61,0,0,1-1.08-5.32A12.09,12.09,0,0,1,4,444.08a13.51,13.51,0,0,1,6.09-4.46,22.79,22.79,0,0,1,8.43-1.44,22.07,22.07,0,0,1,8.3,1.59A15.94,15.94,0,0,1,33,444.22a17.94,17.94,0,0,1,3.56,7.13l-9.18,1.57a8.15,8.15,0,0,0-1.84-3.69,9,9,0,0,0-3.2-2.28,10.81,10.81,0,0,0-3.89-.84,10.36,10.36,0,0,0-3.76.55,7,7,0,0,0-2.87,1.76,3.84,3.84,0,0,0-1.11,2.75,3.28,3.28,0,0,0,.9,2.39A7,7,0,0,0,13.86,455a23.16,23.16,0,0,0,2.81.94l7.81,2.12c1.16.31,2.45.73,3.87,1.23a17.42,17.42,0,0,1,4.07,2.13A10.69,10.69,0,0,1,35.64,465a11.26,11.26,0,0,1,1.26,5.62A12.66,12.66,0,0,1,35.39,477a13.21,13.21,0,0,1-4.07,4.47,18.84,18.84,0,0,1-5.8,2.64A25.46,25.46,0,0,1,18.86,485Z"/><path class="cls-1" d="M59.38,485a12.46,12.46,0,0,1-6.13-1.39,9.4,9.4,0,0,1-3.81-3.71,10.43,10.43,0,0,1-1.29-5.14,12.2,12.2,0,0,1,.71-4.28A8.82,8.82,0,0,1,51.19,467a12.86,12.86,0,0,1,4.32-2.48A32,32,0,0,1,60,463.31c1.73-.35,3.68-.69,5.87-1l7.21-1.08L70,462.91a5.9,5.9,0,0,0-1.44-4.4c-1-.94-2.56-1.41-4.8-1.41a9.53,9.53,0,0,0-3.91.91A5.21,5.21,0,0,0,57,461.22l-7.68-2.43A13,13,0,0,1,54.14,452q3.53-2.62,9.62-2.62a21.54,21.54,0,0,1,7.93,1.37,10.6,10.6,0,0,1,6.43,8.49c.12,1.25.19,2.65.19,4.19V484H70.87v-6.93l1.07,1.44a16,16,0,0,1-5.33,4.92A15.32,15.32,0,0,1,59.38,485Zm1.82-6.68a8.61,8.61,0,0,0,4-.83,8.83,8.83,0,0,0,2.56-1.89A8.14,8.14,0,0,0,69,473.77a8.6,8.6,0,0,0,.77-3.2c.07-1.22.11-2.23.11-3l2.49.63q-3.77.61-6.12,1c-1.56.28-2.82.54-3.77.76a22.32,22.32,0,0,0-2.53.75,9.13,9.13,0,0,0-2,1.08,4,4,0,0,0-1.12,1.26,3.3,3.3,0,0,0-.36,1.54,3.35,3.35,0,0,0,.58,2,3.57,3.57,0,0,0,1.64,1.26A6.44,6.44,0,0,0,61.2,478.27Z"/><path class="cls-1" d="M92.61,484V450.29h7.55v11.18h1.06V484Zm23,0V468.09c0-.77,0-1.75-.13-2.95a12.92,12.92,0,0,0-.78-3.6,6.79,6.79,0,0,0-2.14-3,6.37,6.37,0,0,0-4.2-1.22,8.82,8.82,0,0,0-2.34.34,5.78,5.78,0,0,0-2.34,1.33,7,7,0,0,0-1.79,2.89,14.87,14.87,0,0,0-.71,5.06l-4.87-2.32A17.46,17.46,0,0,1,98,457.1a13.47,13.47,0,0,1,4.88-5.65,14.62,14.62,0,0,1,8.23-2.15,13.53,13.53,0,0,1,6.46,1.34,10.63,10.63,0,0,1,3.89,3.4,14,14,0,0,1,2,4.29,21.18,21.18,0,0,1,.72,4.08c.08,1.23.13,2.12.13,2.68V484Z"/><path class="cls-1" d="M152.87,485a16.66,16.66,0,0,1-9-2.34,15.45,15.45,0,0,1-5.74-6.37,20.16,20.16,0,0,1-2-9.08,19.58,19.58,0,0,1,2.08-9.15,15.64,15.64,0,0,1,5.85-6.34,16.8,16.8,0,0,1,8.93-2.31,16.28,16.28,0,0,1,10,3,13.42,13.42,0,0,1,5.16,8.23l-8.49,2.25a7.7,7.7,0,0,0-2.61-4.09,6.55,6.55,0,0,0-4.19-1.47,7.15,7.15,0,0,0-4.41,1.29,7.63,7.63,0,0,0-2.53,3.53,14.74,14.74,0,0,0-.81,5.05,12,12,0,0,0,1.95,7.13,6.67,6.67,0,0,0,5.8,2.73,6.48,6.48,0,0,0,4.37-1.31,7.9,7.9,0,0,0,2.25-3.75l8.67,1.81a14.4,14.4,0,0,1-5.43,8.28A16.35,16.35,0,0,1,152.87,485Z"/><path class="cls-1" d="M176.91,456.85v-6.56h24v6.56Zm24,27.16a32.86,32.86,0,0,1-6.85.58,16.22,16.22,0,0,1-6-1.18,8,8,0,0,1-4-3.58,10.39,10.39,0,0,1-1.31-4.7c0-1.59-.06-3.4-.06-5.42V440.93h8.49v28.29c0,1.31,0,2.49.05,3.54a4.86,4.86,0,0,0,.64,2.51,4.29,4.29,0,0,0,3.59,1.94,28.16,28.16,0,0,0,5.46-.25Z"/><path class="cls-1" d="M215.25,445.61v-7.49h8.49v7.49Zm0,38.4V450.29h8.49V484Z"/><path class="cls-1" d="M236.85,456.85v-6.56h21.61v6.56ZM242.16,484V450.42c0-.85,0-1.82.06-2.9a15,15,0,0,1,.52-3.28,7.28,7.28,0,0,1,1.67-3,8.21,8.21,0,0,1,3.39-2.39,11.42,11.42,0,0,1,3.54-.68c1.14,0,2.12-.05,2.94-.05h4.18V445h-3.87a3.93,3.93,0,0,0-3,1,3.43,3.43,0,0,0-1,2.42V484Z"/><path class="cls-1" d="M274,499l6.49-17.86.13,5.25L266,450.29h8.8l9.87,25.55h-2l9.81-25.55h8.49L281.87,499Z"/><path class="cls-1" d="M347.25,485a22.2,22.2,0,0,1-9-1.76,16.86,16.86,0,0,1-6.59-5.06,16.38,16.38,0,0,1-3.26-7.85l8.86-1.31a9.88,9.88,0,0,0,3.88,6,11.23,11.23,0,0,0,6.68,2.09,12.74,12.74,0,0,0,4.06-.66,8,8,0,0,0,3.23-1.93,4.31,4.31,0,0,0,1.26-3.15,4.51,4.51,0,0,0-.2-1.33,3.58,3.58,0,0,0-.67-1.2,5,5,0,0,0-1.33-1.07,10.76,10.76,0,0,0-2.17-.9l-11.68-3.44a29.74,29.74,0,0,1-3-1.06,13.31,13.31,0,0,1-3.36-2,10.23,10.23,0,0,1-2.7-3.39,11.61,11.61,0,0,1-1.07-5.32,12.08,12.08,0,0,1,2.27-7.53,13.51,13.51,0,0,1,6.09-4.46,22.82,22.82,0,0,1,8.43-1.44,22.13,22.13,0,0,1,8.31,1.59,16.09,16.09,0,0,1,6.12,4.45,17.94,17.94,0,0,1,3.56,7.13l-9.18,1.57a8.25,8.25,0,0,0-1.84-3.69A9,9,0,0,0,350.7,447a10.72,10.72,0,0,0-3.88-.84,10.45,10.45,0,0,0-3.77.55,7.09,7.09,0,0,0-2.87,1.76,3.84,3.84,0,0,0-1.11,2.75,3.29,3.29,0,0,0,.91,2.39,6.77,6.77,0,0,0,2.28,1.48,23.16,23.16,0,0,0,2.81.94l7.8,2.12c1.17.31,2.46.73,3.88,1.23a17.42,17.42,0,0,1,4.07,2.13A10.79,10.79,0,0,1,364,465a11.26,11.26,0,0,1,1.26,5.62,12.66,12.66,0,0,1-1.51,6.32,13.14,13.14,0,0,1-4.08,4.47,18.68,18.68,0,0,1-5.79,2.64A25.53,25.53,0,0,1,347.25,485Z"/><path class="cls-1" d="M393.59,485a17.14,17.14,0,0,1-8.93-2.28,15.82,15.82,0,0,1-6-6.29,20.86,20.86,0,0,1,.05-18.51,15.78,15.78,0,0,1,6-6.26,18.58,18.58,0,0,1,17.78,0,15.82,15.82,0,0,1,6,6.29,20.8,20.8,0,0,1,0,18.48,15.92,15.92,0,0,1-6,6.28A17.26,17.26,0,0,1,393.59,485Zm0-7.93a7.06,7.06,0,0,0,6.1-2.76,11.77,11.77,0,0,0,2-7.1,11.6,11.6,0,0,0-2-7.19,7.15,7.15,0,0,0-6.07-2.68,7.72,7.72,0,0,0-4.56,1.25,7.33,7.33,0,0,0-2.64,3.46,14.31,14.31,0,0,0-.86,5.16,11.5,11.5,0,0,0,2.05,7.19A7.09,7.09,0,0,0,393.59,477Z"/><path class="cls-1" d="M421.32,456.85v-6.56h21.6v6.56Zm5.3,27.16V450.42c0-.85,0-1.82.07-2.9a14.43,14.43,0,0,1,.51-3.28,7.28,7.28,0,0,1,1.67-3,8.21,8.21,0,0,1,3.39-2.39,11.53,11.53,0,0,1,3.54-.68c1.15,0,2.13-.05,2.94-.05h4.18V445h-3.87a3.93,3.93,0,0,0-3,1,3.42,3.42,0,0,0-1,2.42V484Z"/><path class="cls-1" d="M450.41,456.85v-6.56h24v6.56Zm24,27.16a32.86,32.86,0,0,1-6.85.58,16.31,16.31,0,0,1-6-1.18,8,8,0,0,1-4-3.58,10.39,10.39,0,0,1-1.31-4.7c0-1.59-.06-3.4-.06-5.42V440.93h8.49v28.29c0,1.31,0,2.49.05,3.54a4.86,4.86,0,0,0,.64,2.51,4.28,4.28,0,0,0,3.59,1.94,28.19,28.19,0,0,0,5.46-.25Z"/><path class="cls-2" d="M329.51,254.72a40,40,0,0,0-2.85-59.05c-16-13.25-39.75-11.27-54.44,3.42l-15.4,15.4h0l-16.23,16.23a95.43,95.43,0,0,1-135-135l16.23-16.23C151.21,50.18,130.42,0,88.92,0h0A46.59,46.59,0,0,0,42.33,46.59V343.15a46.59,46.59,0,0,0,46.59,46.58h86.29a46.6,46.6,0,0,0,32.94-13.64Z"/><path class="cls-3" d="M299.18,0a46.62,46.62,0,0,0-32.94,13.64L144.88,135a39.92,39.92,0,0,0,56.46,56.46l16.23-16.23h0l14.8-14.8c36.72-36.71,96.53-39,134.32-3.44a95.53,95.53,0,0,1,2.07,137L352.53,310.2c-29.34,29.35-8.56,79.53,33,79.53h0a46.59,46.59,0,0,0,46.58-46.58V46.59A46.59,46.59,0,0,0,385.48,0Z"/></g></g></svg>